<svg xmlns="http://www.w3.org/2000/svg" viewBox="0 0 52.5 30.8">
  <defs>
    <style>
      #icon {
        fill: none;
        stroke: #E39040;
        stroke-miterlimit: 10;
        stroke-width: 2px;
      }
    </style>
  </defs>
  <path id="icon" class="" d="M102.1,114.4h-5c-11.7-.5-22.3-25.7-22.3-25.7s-.5-1.4,1.2-1.8,7.9,0,7.9,0a2.2,2.2,0,0,1,2,1.5c3.5,7.7,5.7,10,6.7,10.8a1,1,0,0,0,1.5-.2,6.1,6.1,0,0,0,.7-3.6l-.3-5.1s-.1-2.1-3-2.4c-.2-1,.6-1.5,1.4-1.9a5,5,0,0,1,1.9-.4h7.3a2.6,2.6,0,0,1,2.5,2.8v8.5a4.3,4.3,0,0,0,.4,2,.9.9,0,0,0,1.2.3c2.4-1.3,5.8-8.8,6.9-11.1a2,2,0,0,1,1.4-1.1h9c1.3,0,1.7.7,1.8,1.4a2.4,2.4,0,0,1-.3,1.5,44.5,44.5,0,0,1-2.8,4.3l-4.5,6.1h0a2.2,2.2,0,0,0,.2,3.4,58.8,58.8,0,0,1,7,7.5,2.6,2.6,0,0,1,.3,1.6,1.5,1.5,0,0,1-1.1,1.3,9.8,9.8,0,0,1-2.3.3l-6.4.3c-1.9,0-4.1-2.4-4.1-2.4l-3-3.4a2.8,2.8,0,0,0-1.2-.9c-.7-.2-1.6-.2-1.9,1.4l-.7,3.8A2.2,2.2,0,0,1,102.1,114.4Z" transform="translate(-73.7 -84.6)"/>
</svg>
