<svg id="Layer_2" data-name="Layer 2" xmlns="http://www.w3.org/2000/svg" viewBox="0 0 1017.3 355">
  <defs>
    <style>
      .cls-1 {
        fill: #C15306;
      }
      .cls-2 {
        fill: #fff;
      }
    </style>
  </defs>
  <title>logo</title>
  <rect class="cls-1" x="299.9" y="31" width="349.7" height="207.83"/>
  <path class="cls-2" d="M1017.3,72.2c0-70.5-86-72.2-86-72.2H478.5V31h171V228L557.3,43.5H525L428.6,238.8H299.9V150.4h126v-31h-126V31H469V0H0V31H132.3V269.8h39V31h89.6V238.8h0v31H413.3l-42,85.1H413l42.2-85.1H627.5L670.3,355H713l-42.5-85.1h18.1V31H927.7s49,1.8,49.3,44.2-47.3,44.2-47.3,44.2H802V59.6H763v59.8h0v31h0v59.7h39V150.4h97.5l74.7,119.4h43.2L943,150.4S1017.4,146.2,1017.3,72.2ZM470.6,238.8,540.7,97.5l71.2,141.3Z"/>
</svg>
