
<svg id="logo_svg" width="181px" height="181px" viewBox="0 0 181 181" version="1.1" xmlns="http://www.w3.org/2000/svg" xmlns:xlink="http://www.w3.org/1999/xlink" xmlns:sketch="http://www.bohemiancoding.com/sketch/ns">
    <!-- Generator: Sketch 3.2.2 (9983) - http://www.bohemiancoding.com/sketch -->
    <title>logo 2</title>
    <desc>Created with Sketch.</desc>
    <defs></defs>
    <g id="Page-1" stroke="none" stroke-width="1" fill="none" fill-rule="evenodd" sketch:type="MSPage">
        <g id="logo" sketch:type="MSLayerGroup" fill="#000000">
            <g id="Group" sketch:type="MSShapeGroup">
                <g id="Shape">
                    <path d="M21.8889333,19.6179867 L16.0848667,19.6179867 L16.0848667,29.8826978 L12.6152978,29.8826978 L12.6152978,16.5522489 L25.3576978,16.5522489 L25.3576978,29.8826978 L21.8889333,29.8826978 L21.8889333,19.6179867 L21.8889333,19.6179867 Z"></path>
                    <path d="M29.0380311,16.5522489 L33.5750978,16.5522489 L33.9708844,18.1563111 L34.07868,18.1563111 C35.0029867,16.8362178 36.5008622,16.1765733 38.5594356,16.1765733 C39.3759467,16.1765733 40.1248844,16.3109156 40.8126844,16.5699467 C41.4908311,16.8265644 42.0748578,17.2287867 42.5679822,17.78144 C43.0603022,18.3300711 43.44,19.0259156 43.7070756,19.8577111 C43.9733467,20.69192 44.1028622,21.6974756 44.1028622,22.8727689 C44.1028622,24.0118622 43.9484089,25.0351156 43.6539822,25.9554 C43.3474889,26.8684444 42.91148,27.6463422 42.3403244,28.2850711 C41.7707778,28.9262133 41.0789556,29.4137067 40.2672711,29.7531822 C39.4459333,30.0862222 38.5127778,30.2583733 37.4637822,30.2583733 C36.9103244,30.2583733 36.37376,30.2173467 35.8347822,30.1377067 C35.3054578,30.0588711 34.8589911,29.9277467 34.50584,29.7531822 L34.50584,35.2161644 L31.0394889,35.2161644 L31.0394889,19.4868622 L29.0380311,19.4868622 L29.0380311,16.5522489 L29.0380311,16.5522489 Z M37.5168756,19.1127956 C36.8451644,19.1127956 36.2233289,19.2849467 35.66424,19.6179867 C35.1043467,19.9542444 34.7149956,20.4618489 34.5050356,21.1391911 L34.5050356,26.6826178 C34.7552178,26.8805111 35.114,27.03416 35.5862089,27.1516089 C36.0584178,27.2674489 36.5306267,27.32376 37.0132933,27.32376 C37.5064178,27.32376 37.9681689,27.2417067 38.3993511,27.0695556 C38.82088,26.9030356 39.1941422,26.6319378 39.5175289,26.2586756 C39.8360889,25.8813911 40.0822489,25.4180311 40.2672711,24.84768 C40.4402267,24.2781333 40.52952,23.5935511 40.52952,22.7955422 C40.52952,21.6170311 40.2479644,20.7112267 39.6768089,20.0724978 C39.1080667,19.4337689 38.3888933,19.1127956 37.5168756,19.1127956 L37.5168756,19.1127956 Z"></path>
                    <path d="M47.9239733,17.46288 C48.6326889,17.1362756 49.4596578,16.86196 50.3920089,16.6367156 C51.3219467,16.4026222 52.4304711,16.2883911 53.7087333,16.2883911 C54.63304,16.2883911 55.4165689,16.3986 56.0641467,16.6214311 C56.7157467,16.8418489 57.2402444,17.1579956 57.6456844,17.5658489 C58.0414711,17.9817467 58.3334844,18.4636089 58.5072444,19.03396 C58.6914622,19.6010933 58.7751244,20.2446489 58.7751244,20.95256 C58.7751244,21.8583644 58.7437511,22.6330444 58.6826133,23.2701644 C58.6206711,23.9113067 58.5844711,24.4816578 58.5844711,24.9763911 C58.5844711,25.3480444 58.6045822,25.7663556 58.6456089,26.2281067 C58.6769822,26.4807022 58.7067467,26.7188178 58.7228356,26.9496933 L60.4580222,26.9496933 L60.4580222,29.8826978 L55.9828978,29.8826978 L55.6337689,28.0710889 L55.4946,28.0710889 C55.1414489,28.6229378 54.6386711,29.09756 53.9870711,29.4981733 C53.3338622,29.8931556 52.4521911,30.0950711 51.3372311,30.0950711 C50.0090933,30.0950711 48.9617067,29.7411156 48.1813956,29.0275733 C47.4059111,28.3196622 47.0229956,27.3752444 47.0229956,26.2079956 C47.0229956,25.4590578 47.1557289,24.8171111 47.4324578,24.2733067 C47.6995333,23.7295022 48.1001467,23.2854489 48.6230356,22.9387333 C49.1419022,22.5920178 49.7733911,22.3329867 50.5014133,22.1664667 C51.23024,21.9975333 52.0515778,21.9122622 52.9549689,21.9122622 C53.2727244,21.9122622 53.6065689,21.92996 53.95972,21.9613333 C54.3088489,22.00236 54.7392267,22.0401689 55.2580933,22.0715422 C55.2950978,21.8945644 55.3039467,21.7183911 55.3039467,21.5430222 L55.3039467,21.0289822 C55.3039467,20.3572711 55.1140978,19.8721911 54.7295733,19.5793733 C54.3386133,19.2841422 53.7650444,19.1377333 53.0056489,19.1377333 C52.1070844,19.1377333 51.2913778,19.2559867 50.5738133,19.4868622 C49.8498133,19.7185422 49.2384356,19.9494178 48.7461156,20.1802933 L47.9239733,17.46288 L47.9239733,17.46288 Z M52.46104,27.2449244 C53.3032933,27.2449244 53.9396089,27.0904711 54.3603333,26.7775422 C54.7802533,26.4646133 55.0899644,26.1307689 55.2822267,25.7824444 L55.2822267,24.1783822 C55.1092711,24.1421822 54.843,24.1043733 54.4938711,24.0577156 C54.1455467,24.0142756 53.7594133,23.9885333 53.3539733,23.9885333 C53.0241511,23.9885333 52.6862844,24.02232 52.3588756,24.0842622 C52.0210089,24.1478133 51.72256,24.2483689 51.4603111,24.3794933 C51.1988667,24.5130311 50.9824711,24.6843778 50.8296267,24.8999689 C50.6647156,25.1099289 50.5947289,25.3697644 50.5947289,25.6698222 C50.5947289,26.1677733 50.73792,26.5579289 51.0251067,26.8346578 C51.3163156,27.10656 51.7941556,27.2449244 52.46104,27.2449244 L52.46104,27.2449244 Z"></path>
                    <path d="M67.63608,21.9613333 L69.0486844,21.9613333 L73.4522133,16.5522489 L77.3674444,16.5522489 L72.0661556,22.7641689 L75.33944,26.9496933 L77.5058089,26.9496933 L77.5058089,29.8826978 L73.6871111,29.8826978 L69.36644,24.6296756 L67.6352756,24.6296756 L67.6352756,29.8826978 L64.1713378,29.8826978 L64.1713378,16.5522489 L67.6352756,16.5522489"></path>
                    <path d="M82.0139156,26.9488889 L85.4714178,26.9488889 L85.4714178,19.6179867 L83.3677956,19.6179867 L83.3677956,21.88652 L80.4106578,21.88652 L80.4106578,16.5522489 L94.1151733,16.5522489 L94.1151733,21.88652 L91.1797556,21.88652 L91.1797556,19.6179867 L89.0487822,19.6179867 L89.0487822,26.9488889 L92.5135244,26.9488889 L92.5135244,29.8818933 L82.01472,29.8818933 L82.01472,26.9488889 L82.0139156,26.9488889 Z"></path>
                    <path d="M107.544569,23.8059244 L107.682933,21.9122622 L107.601684,21.9122622 L101.175782,29.8826978 L98.45676,29.8826978 L98.45676,16.5522489 L101.925524,16.5522489 L101.925524,22.8977067 L101.760613,24.7117289 L101.869213,24.7117289 L108.294311,16.5514444 L111.014138,16.5514444 L111.014138,29.8818933 L107.544569,29.8818933 L107.544569,23.8059244 L107.544569,23.8059244 Z"></path>
                    <path d="M120.902369,24.6296756 L119.168791,24.6296756 L119.168791,29.8826978 L115.700027,29.8826978 L115.700027,16.5522489 L119.168791,16.5522489 L119.168791,21.9613333 L120.585418,21.9613333 L124.979293,16.5522489 L128.90096,16.5522489 L123.592431,22.7641689 L126.872151,26.9496933 L129.033693,26.9496933 L129.033693,29.8826978 L125.219822,29.8826978 L120.902369,24.6296756 L120.902369,24.6296756 Z"></path>
                    <path d="M132.548311,17.46288 C133.263462,17.1362756 134.083996,16.86196 135.017151,16.6367156 C135.94548,16.4026222 137.054809,16.2883911 138.332267,16.2883911 C139.255769,16.2883911 140.048147,16.3986 140.693311,16.6214311 C141.340889,16.8418489 141.863778,17.1579956 142.262782,17.5658489 C142.663396,17.9817467 142.949778,18.4636089 143.131582,19.03396 C143.310973,19.6010933 143.397853,20.2446489 143.397853,20.95256 C143.397853,21.8583644 143.362458,22.6330444 143.299711,23.2701644 C143.244204,23.9113067 143.215244,24.4816578 143.215244,24.9763911 C143.215244,25.3480444 143.230529,25.7663556 143.26512,26.2281067 C143.300516,26.4807022 143.327867,26.7188178 143.341542,26.9496933 L145.077533,26.9496933 L145.077533,29.8826978 L140.601604,29.8826978 L140.252476,28.0710889 L140.118938,28.0710889 C139.769004,28.6229378 139.263813,29.09756 138.612213,29.4981733 C137.954178,29.8931556 137.070898,30.0950711 135.963178,30.0950711 C134.638258,30.0950711 133.586044,29.7411156 132.805733,29.0275733 C132.031053,28.3196622 131.640898,27.3752444 131.640898,26.2079956 C131.640898,25.4590578 131.781676,24.8171111 132.051164,24.2733067 C132.32548,23.7295022 132.724484,23.2854489 133.247373,22.9387333 C133.765436,22.5920178 134.392098,22.3329867 135.12012,22.1664667 C135.861818,21.9975333 136.679938,21.9122622 137.575284,21.9122622 C137.893844,21.9122622 138.229298,21.92996 138.58084,21.9613333 C138.937209,22.00236 139.368391,22.0401689 139.878409,22.0715422 C139.915413,21.8945644 139.933916,21.7183911 139.933916,21.5430222 L139.933916,21.0289822 C139.933916,20.3572711 139.737631,19.8721911 139.349084,19.5793733 C138.96456,19.2841422 138.393404,19.1377333 137.629987,19.1377333 C136.731422,19.1377333 135.919738,19.2559867 135.191716,19.4868622 C134.474151,19.7185422 133.865991,19.9494178 133.36804,20.1802933 L132.548311,17.46288 L132.548311,17.46288 Z M137.083769,27.2449244 C137.926827,27.2449244 138.557511,27.0904711 138.984671,26.7775422 C139.403787,26.4646133 139.705453,26.1307689 139.901738,25.7824444 L139.901738,24.1783822 C139.729587,24.1421822 139.467338,24.1043733 139.114187,24.0577156 C138.765058,24.0142756 138.384556,23.9885333 137.983138,23.9885333 C137.644467,23.9885333 137.316253,24.02232 136.977582,24.0842622 C136.648564,24.1478133 136.35092,24.2483689 136.084649,24.3794933 C135.818378,24.5130311 135.613244,24.6843778 135.449138,24.8999689 C135.295489,25.1099289 135.218262,25.3697644 135.218262,25.6698222 C135.218262,26.1677733 135.356627,26.5579289 135.654271,26.8346578 C135.941458,27.10656 136.418493,27.2449244 137.083769,27.2449244 L137.083769,27.2449244 Z"></path>
                    <path d="M13.4575511,47.8805333 C13.4575511,47.7164267 13.45192,47.50888 13.4422667,47.2490444 C13.4318089,46.99484 13.4221556,46.7261556 13.4052622,46.45184 C13.3851511,46.1710889 13.3594089,45.9048178 13.3344711,45.6401556 C13.3039022,45.3706667 13.2733333,45.1422044 13.2427644,44.9427022 L11.4568978,44.9427022 L11.4568978,43.2107333 L14.9980622,43.2107333 L15.2643333,45.0786533 L15.4091333,45.0786533 C15.8797333,44.4560133 16.4911111,43.9371467 17.2247644,43.5188356 C17.9632444,43.09972 18.8666356,42.8929778 19.9349378,42.8929778 C21.8342311,42.8929778 23.2653378,43.4166711 24.22504,44.4656667 C25.1847422,45.5154667 25.6617778,47.2297378 25.6617778,49.6108933 C25.6617778,50.7298756 25.4984756,51.7402578 25.1694578,52.6339956 C24.84044,53.5317556 24.3794933,54.2935644 23.7729422,54.9145956 C23.1688044,55.53804 22.4399778,56.01588 21.5888756,56.3537467 C20.7345556,56.6908089 19.7917467,56.86296 18.7596444,56.86296 C18.3863822,56.86296 18.05656,56.8500889 17.7589156,56.8219333 C17.4717289,56.7961911 17.2046533,56.7599911 16.9584933,56.7165511 C16.7163556,56.6706978 16.48548,56.6135822 16.2594311,56.5419867 C16.0229244,56.4728044 15.7767644,56.3802933 15.5096889,56.2749111 L15.5096889,61.8722356 L13.4575511,61.8722356 L13.4575511,47.8805333 L13.4575511,47.8805333 Z M19.5850044,44.8678889 C19.0508533,44.8678889 18.5537067,44.9628133 18.0814978,45.1607067 C17.6036578,45.3529689 17.1933911,45.6095867 16.8281733,45.93056 C16.46376,46.2483156 16.16692,46.6022711 15.93524,46.9900133 C15.7043644,47.3833867 15.5603689,47.7743467 15.5088844,48.1628933 L15.5088844,54.2251867 C15.8998444,54.4938711 16.3358533,54.7022222 16.8281733,54.85024 C17.3164711,54.9998667 17.96244,55.0762889 18.7580356,55.0762889 C20.1794889,55.0762889 21.3177778,54.6121244 22.1712933,53.6805778 C23.0240044,52.7514444 23.4495556,51.3887156 23.4495556,49.5948044 C23.4495556,48.08808 23.1567378,46.9216356 22.5614489,46.0994933 C21.96616,45.27896 20.9702578,44.8678889 19.5850044,44.8678889 L19.5850044,44.8678889 Z"></path>
                    <path d="M30.4852267,56.5411822 L30.4852267,54.7520978 L34.0778756,54.7520978 L34.0778756,44.9990133 L30.4852267,44.9990133 L30.4852267,43.2107333 L35.4751956,43.2107333 L35.89592,44.9427022 L36.0294578,44.9427022 C36.6352044,44.3908533 37.3125467,43.9258844 38.0510267,43.53412 C38.8007689,43.1447689 39.6937022,42.9468756 40.7193689,42.9468756 C41.32592,42.9468756 41.8085867,43.0627156 42.1770222,43.2935911 C42.5366089,43.5188356 42.8246,43.8631378 43.0289289,44.3039733 C43.2292356,44.7512444 43.3684044,45.2902222 43.44,45.9209067 C43.5115956,46.5532 43.5421644,47.2659378 43.5421644,48.0639467 L41.6855067,48.0888844 C41.6855067,46.9626622 41.5728844,46.1356933 41.3460311,45.60476 C41.1256133,45.0786533 40.7193689,44.8115778 40.1353422,44.8115778 C39.5859067,44.8115778 39.0871511,44.8944356 38.6414889,45.0529111 C38.1942178,45.2121911 37.8040622,45.4068667 37.4798711,45.6385467 C37.1524622,45.8694222 36.8757333,46.0954711 36.6448578,46.3279556 C36.40996,46.5572222 36.2442444,46.7518978 36.1316222,46.9111778 L36.1316222,54.7529022 L41.2543244,54.7529022 L41.2543244,56.5419867 L30.4852267,56.5419867 L30.4852267,56.5411822 Z"></path>
                    <path d="M48.7187644,44.2549022 C49.4837911,43.8060222 50.34696,43.4874622 51.3010311,43.2935911 C52.2663644,43.1005244 53.2059556,43.0031867 54.1326756,43.0031867 C55.03848,43.0031867 55.7761556,43.1447689 56.3545511,43.4271289 C56.93536,43.7119022 57.3882622,44.0787289 57.7164756,44.5308267 C58.0446889,44.9845333 58.2707378,45.5009867 58.3825556,46.0777733 C58.4959822,46.6585822 58.55712,47.2401956 58.55712,47.8226133 C58.55712,48.4999556 58.5354,49.2207378 58.5056356,49.98496 C58.4662178,50.7475733 58.4444978,51.5117956 58.4227778,52.2768222 C58.4227778,53.1649289 58.4758711,54.0087911 58.5780356,54.8092133 L60.3679244,54.8092133 L60.3679244,56.5419867 L56.8500889,56.5419867 L56.6087556,54.5453556 L56.4752178,54.5453556 C56.3722489,54.7078533 56.2065333,54.9049422 55.9925511,55.1567333 C55.77696,55.4053067 55.5002311,55.6490533 55.1511022,55.8903867 C54.8027778,56.1293067 54.3804444,56.3368533 53.8881244,56.5162444 C53.3853467,56.6908089 52.7964933,56.7809067 52.1215644,56.7809067 C50.7982533,56.7809067 49.7524756,56.4470622 48.99308,55.7648933 C48.2224222,55.0972044 47.8435289,54.1712889 47.8435289,52.9935822 C47.8435289,52.0885822 48.0382044,51.3356222 48.4436444,50.73068 C48.8498889,50.1249333 49.4186311,49.6688133 50.1683733,49.3446222 C50.91168,49.0244533 51.8263333,48.8370178 52.8825689,48.7855333 C53.9404133,48.7340489 55.1301867,48.8032311 56.45028,48.9979067 C56.53716,48.1822 56.5524444,47.4992267 56.4921111,46.9578356 C56.4341911,46.4220756 56.291,45.9876756 56.0649511,45.6642889 C55.8389022,45.3465333 55.5316044,45.1204844 55.1261644,44.9845333 C54.7255511,44.8534089 54.2332311,44.7874444 53.6435733,44.7874444 C52.8423467,44.7874444 52.0724933,44.8944356 51.3436667,45.1204844 C50.6156444,45.3433156 49.9584133,45.5677556 49.3953022,45.7978267 L48.7187644,44.2549022 L48.7187644,44.2549022 Z M52.6669778,54.9934311 C53.1584933,54.9934311 53.6250711,54.9137911 54.0482089,54.7520978 C54.4785867,54.5960356 54.8526533,54.3884889 55.1720178,54.1415244 C55.4905778,53.8929511 55.7568489,53.6210489 55.97244,53.3314489 C56.1880311,53.0394356 56.34168,52.7562711 56.45028,52.49 L56.45028,50.62208 C55.5316044,50.4628 54.6796978,50.3839644 53.8993867,50.3839644 C53.1094222,50.3839644 52.43208,50.4708444 51.86736,50.6381689 C51.30264,50.8095156 50.8505422,51.0717644 50.5319822,51.4233067 C50.2142267,51.7796756 50.0485111,52.2422311 50.0485111,52.8109733 C50.0485111,53.3982178 50.2536444,53.9066267 50.65104,54.34344 C51.0556756,54.7810578 51.72256,54.9934311 52.6669778,54.9934311 L52.6669778,54.9934311 Z"></path>
                    <path d="M63.7835956,37.8788756 L68.0938089,37.8788756 L68.0938089,48.9174622 L69.56192,48.9174622 L74.8173556,43.2107333 L77.3215911,43.2107333 L71.42984,49.5328622 L76.2750089,54.7520978 L78.0190444,54.7520978 L78.0190444,56.5411822 L75.2686489,56.5411822 L69.56192,50.5158933 L68.0938089,50.5158933 L68.0938089,56.5411822 L66.0456933,56.5411822 L66.0456933,39.6671556 L63.7835956,39.6671556 L63.7835956,37.8788756 L63.7835956,37.8788756 Z"></path>
                    <path d="M81.7001822,43.2107333 L84.8769333,43.2107333 L84.8769333,40.57296 L86.9797511,39.9873244 L86.9797511,43.2107333 L94.0942578,43.2107333 L94.0942578,44.9990133 L86.9797511,44.9990133 L86.9797511,51.2945956 C86.9797511,52.5873378 87.2950933,53.54704 87.9241689,54.1704844 C88.5516356,54.7907111 89.4542222,55.1020311 90.6254933,55.1020311 C91.4154578,55.1020311 92.1137156,54.9532089 92.7098089,54.64752 C93.2938356,54.3450489 93.8328133,54.0136178 94.3090444,53.6620756 L95.00328,55.2371778 C94.3814444,55.7327156 93.64216,56.1325244 92.7789911,56.4358 C91.9166267,56.7390756 91.0349556,56.8878978 90.1211067,56.8878978 C89.4131956,56.8878978 88.7455067,56.7849289 88.1099956,56.5797956 C87.4825289,56.3794889 86.9290711,56.0609289 86.4464044,55.6353778 C85.9637378,55.2066089 85.58404,54.6579778 85.2960489,53.9927022 C85.0144933,53.3306444 84.8761289,52.5350489 84.8761289,51.6091333 L84.8761289,44.9990133 L81.6993778,44.9990133 L81.6993778,43.2107333 L81.7001822,43.2107333 Z"></path>
                    <path d="M99.93372,56.5411822 L99.93372,54.7520978 L104.568124,54.7520978 L104.568124,44.9990133 L99.93372,44.9990133 L99.93372,43.2107333 L106.670942,43.2107333 L106.670942,54.7520978 L111.203987,54.7520978 L111.203987,56.5411822 L99.93372,56.5411822 Z"></path>
                    <path d="M103.819991,39.3357244 C103.819991,38.8530578 103.984098,38.4419867 104.302658,38.0960756 C104.626044,37.7525778 105.03068,37.5723822 105.523,37.5723822 C106.042671,37.5723822 106.473049,37.7525778 106.821373,38.0960756 C107.171307,38.4419867 107.34024,38.8530578 107.34024,39.3357244 C107.34024,39.7974756 107.171307,40.1900444 106.821373,40.5086044 C106.472244,40.8319911 106.041867,40.9832267 105.523,40.9832267 C105.031484,40.9832267 104.626849,40.8319911 104.302658,40.5086044 C103.984098,40.1900444 103.819991,39.7974756 103.819991,39.3357244 L103.819991,39.3357244 Z"></path>
                    <path d="M114.741129,37.8788756 L119.0618,37.8788756 L119.0618,48.9174622 L120.523476,48.9174622 L125.778911,43.2107333 L128.283951,43.2107333 L122.3922,49.5328622 L127.247022,54.7520978 L128.974969,54.7520978 L128.974969,56.5411822 L126.231813,56.5411822 L120.522671,50.5158933 L119.060996,50.5158933 L119.060996,56.5411822 L117.002422,56.5411822 L117.002422,39.6671556 L114.740324,39.6671556 L114.740324,37.8788756 L114.741129,37.8788756 Z"></path>
                    <path d="M133.4332,44.2549022 C134.196618,43.8060222 135.058178,43.4874622 136.01788,43.2935911 C136.976778,43.1005244 137.921196,43.0031867 138.840676,43.0031867 C139.750502,43.0031867 140.488178,43.1447689 141.073813,43.4271289 C141.648991,43.7119022 142.09948,44.0787289 142.429302,44.5308267 C142.755907,44.9845333 142.981956,45.5009867 143.094578,46.0777733 C143.2072,46.6585822 143.269947,47.2401956 143.269947,47.8226133 C143.269947,48.4999556 143.249836,49.2207378 143.218462,49.98496 C143.17824,50.7475733 143.146867,51.5117956 143.135604,52.2768222 C143.135604,53.1649289 143.186284,54.0087911 143.290058,54.8092133 L145.076729,54.8092133 L145.076729,56.5419867 L141.554871,56.5419867 L141.319973,54.5453556 L141.184827,54.5453556 C141.082662,54.7078533 140.918556,54.9049422 140.7094,55.1567333 C140.488178,55.4053067 140.210644,55.6490533 139.86232,55.8903867 C139.518822,56.1293067 139.091662,56.3368533 138.588884,56.5162444 C138.097369,56.6908089 137.506907,56.7809067 136.82876,56.7809067 C135.510276,56.7809067 134.462084,56.4470622 133.704298,55.7648933 C132.932836,55.0972044 132.553942,54.1712889 132.553942,52.9935822 C132.553942,52.0885822 132.751836,51.3356222 133.146818,50.73068 C133.553867,50.1249333 134.133067,49.6688133 134.877178,49.3446222 C135.626116,49.0244533 136.530311,48.8370178 137.587351,48.7855333 C138.648413,48.7340489 139.838991,48.8032311 141.163911,48.9979067 C141.245964,48.1822 141.260444,47.4992267 141.199307,46.9578356 C141.138169,46.4220756 140.999804,45.9876756 140.77456,45.6642889 C140.546902,45.3465333 140.232364,45.1204844 139.83336,44.9845333 C139.434356,44.8534089 138.934796,44.7874444 138.350769,44.7874444 C137.550347,44.7874444 136.781298,44.8944356 136.053276,45.1204844 C135.318818,45.3433156 134.668022,45.5677556 134.100889,45.7978267 L133.4332,44.2549022 L133.4332,44.2549022 Z M137.378196,54.9934311 C137.869711,54.9934311 138.335484,54.9137911 138.765058,54.7520978 C139.189804,54.5960356 139.563067,54.3884889 139.881627,54.1415244 C140.200187,53.8929511 140.468067,53.6210489 140.683658,53.3314489 C140.898444,53.0394356 141.057724,52.7562711 141.166324,52.49 L141.166324,50.62208 C140.234778,50.4628 139.388502,50.3839644 138.600951,50.3839644 C137.819031,50.3839644 137.142493,50.4708444 136.578578,50.6381689 C136.009031,50.8095156 135.560956,51.0717644 135.249636,51.4233067 C134.926249,51.7796756 134.764556,52.2422311 134.764556,52.8109733 C134.764556,53.3982178 134.966471,53.9066267 135.365476,54.34344 C135.766893,54.7810578 136.433778,54.9934311 137.378196,54.9934311 L137.378196,54.9934311 Z"></path>
                    <path d="M14.0110089,80.2642489 L17.4757511,80.2642489 L17.4757511,72.9341511 L15.3648889,72.9341511 L15.3648889,75.2042933 L12.4101644,75.2042933 L12.4101644,69.8724356 L26.1122667,69.8724356 L26.1122667,75.2042933 L23.1768489,75.2042933 L23.1768489,72.9341511 L21.0474844,72.9341511 L21.0474844,80.2642489 L24.5114222,80.2642489 L24.5114222,83.1996667 L14.0110089,83.1996667 L14.0110089,80.2642489 L14.0110089,80.2642489 Z"></path>
                    <path d="M43.0546711,81.7862578 C42.8181644,82.0034578 42.5261511,82.2093956 42.1561067,82.4121156 C41.7973244,82.6140311 41.3661422,82.8079022 40.8730178,82.9840756 C40.3903511,83.1618578 39.8465467,83.3074622 39.2673467,83.4144533 C38.6768844,83.5174222 38.0566578,83.57132 37.3994267,83.57132 C36.2643556,83.57132 35.2483422,83.4144533 34.3457556,83.0918711 C33.4512133,82.7717022 32.6926222,82.3019067 32.0675689,81.6977689 C31.4513644,81.0791511 30.9686978,80.3430844 30.63968,79.4775022 C30.3114667,78.6215733 30.14736,77.6353244 30.14736,76.5324311 C30.14736,75.3595511 30.3331867,74.3338844 30.71208,73.4538222 C31.08132,72.57376 31.5945556,71.8449333 32.2413289,71.2568844 C32.8889067,70.6704444 33.6483022,70.2312178 34.5195156,69.9351822 C35.3939467,69.6423644 36.33756,69.4991733 37.3479422,69.4991733 C38.0212622,69.4991733 38.71952,69.5868578 39.43628,69.7638356 C40.16028,69.9408133 40.8215333,70.24972 41.4280844,70.6833156 C42.0338311,71.1217378 42.5269556,71.7025467 42.9066533,72.4273511 C43.2903733,73.1618089 43.4762,74.0804844 43.4762,75.2042933 C43.4762,75.9661022 43.3885156,76.7922667 43.20832,77.6835911 L33.6169289,77.6835911 C33.6322133,78.2483111 33.7504667,78.7301733 33.9757111,79.1203289 C34.1969333,79.5104844 34.4873378,79.8338711 34.8589911,80.0832489 C35.2177733,80.3342356 35.6384978,80.5112133 36.1050756,80.6294667 C36.5780889,80.7420889 37.0768444,80.7984 37.6150178,80.7984 C38.6768844,80.7984 39.5529244,80.6777333 40.2423333,80.4259422 C40.9253067,80.1797822 41.4787644,79.8748978 41.9043156,79.5201378 L43.0546711,81.7862578 L43.0546711,81.7862578 Z M37.2908267,72.2664622 C36.8282711,72.2664622 36.3978933,72.3332311 35.9876267,72.4587244 C35.5765556,72.5866311 35.2065111,72.7716533 34.8791022,73.0186178 C34.5500844,73.2647778 34.2822044,73.5680533 34.0690267,73.9260311 C33.8526311,74.2880311 33.7287467,74.6966889 33.6925467,75.1536133 L40.2503778,75.1536133 C40.2503778,74.2630933 40.0106533,73.5600089 39.5175289,73.0435556 C39.0300356,72.5287111 38.2867289,72.2664622 37.2908267,72.2664622 L37.2908267,72.2664622 Z"></path>
                    <path d="M48.1307156,70.7750222 C48.8386267,70.4564622 49.6599644,70.1821467 50.5947289,69.9488578 C51.52708,69.7179822 52.6299733,69.60536 53.90904,69.60536 C54.8317378,69.60536 55.6217022,69.7131556 56.2700844,69.9359867 C56.9176622,70.1604267 57.4405511,70.4749644 57.84036,70.8860356 C58.2401689,71.2914756 58.52816,71.7821867 58.7131822,72.3485156 C58.8869422,72.9188667 58.9794533,73.5608133 58.9794533,74.2719422 C58.9794533,75.18016 58.9440578,75.9492089 58.8764844,76.5911556 C58.8217822,77.2322978 58.7896044,77.8002356 58.7896044,78.2973822 C58.7896044,78.66984 58.8056933,79.0849333 58.8362622,79.5474889 C58.8764844,79.7984756 58.9038356,80.0398089 58.9199244,80.2658578 L60.6599378,80.2658578 L60.6599378,83.2012756 L56.1791822,83.2012756 L55.8300533,81.3880578 L55.6957111,81.3880578 C55.3465822,81.9391022 54.8446089,82.4137244 54.1873778,82.8143378 C53.5341689,83.2173644 52.6516933,83.4168667 51.5367333,83.4168667 C50.2142267,83.4168667 49.1620133,83.0580844 48.3833111,82.3493689 C47.6078267,81.6366311 47.2168667,80.6978444 47.2168667,79.5217467 C47.2168667,78.7744178 47.3552311,78.1332756 47.6263289,77.5886667 C47.9038622,77.0488844 48.2996489,76.6072444 48.8233422,76.2557022 C49.3422089,75.9105956 49.9672622,75.6539778 50.70172,75.4826311 C51.4361778,75.3153067 52.2462533,75.2316444 53.15608,75.2316444 C53.4682044,75.2316444 53.8068756,75.2493422 54.1608311,75.2855422 C54.5155911,75.3217422 54.9459689,75.3555289 55.4535733,75.3877067 C55.4905778,75.2115333 55.5098844,75.0361644 55.5098844,74.8567733 L55.5098844,74.3515822 C55.5098844,73.6734356 55.3152089,73.18916 54.9242489,72.8987556 C54.5405289,72.6043289 53.9661556,72.4603333 53.20676,72.4603333 C52.3081956,72.4603333 51.4965111,72.5729556 50.77412,72.8038311 C50.0493156,73.0363156 49.4451778,73.2688 48.9464222,73.4980667 L48.1307156,70.7750222 L48.1307156,70.7750222 Z M52.6669778,80.5602844 C53.5084267,80.5602844 54.14072,80.4090489 54.5598356,80.0920978 C54.9861911,79.7856044 55.2950978,79.4493467 55.4785111,79.0921733 L55.4785111,77.4953511 C55.3039467,77.4575422 55.0489378,77.4213422 54.6941778,77.3762933 C54.3386133,77.33044 53.9589156,77.30872 53.5599111,77.30872 C53.2204356,77.30872 52.8922222,77.3400933 52.5535511,77.4012311 C52.2245333,77.4623689 51.9228667,77.5661422 51.6614222,77.6972667 C51.3991733,77.8308044 51.1876044,78.0021511 51.0251067,78.2121111 C50.8714578,78.4277022 50.7886,78.6867333 50.7886,78.9875956 C50.7886,79.4847422 50.9334,79.8732889 51.2254133,80.1476044 C51.5174267,80.4243333 51.9944622,80.5602844 52.6669778,80.5602844 L52.6669778,80.5602844 Z"></path>
                    <path d="M65.8148178,80.2642489 L69.2843867,80.2642489 L69.2843867,72.9341511 L67.1695022,72.9341511 L67.1695022,75.2042933 L64.2139733,75.2042933 L64.2139733,69.8724356 L77.91688,69.8724356 L77.91688,75.2042933 L74.9862889,75.2042933 L74.9862889,72.9341511 L72.8512933,72.9341511 L72.8512933,80.2642489 L76.3200578,80.2642489 L76.3200578,83.1996667 L65.8148178,83.1996667 L65.8148178,80.2642489 L65.8148178,80.2642489 Z"></path>
                    <path d="M81.2239511,69.8724356 L85.7561911,69.8724356 L86.1568044,71.4708667 L86.2637956,71.4708667 C87.1881022,70.1539911 88.6811511,69.4999778 90.7445511,69.4999778 C91.5554311,69.4999778 92.3083911,69.6262756 92.9929733,69.88772 C93.6799689,70.1419244 94.2648,70.5449511 94.7522933,71.0984089 C95.2397867,71.6478444 95.6202889,72.3388622 95.88656,73.1770933 C96.1536356,74.0088889 96.2879778,75.0144444 96.2879778,76.1897378 C96.2879778,77.3296356 96.1335244,78.3528889 95.83588,79.2699556 C95.5277778,80.183 95.0974,80.9625067 94.5270489,81.5996267 C93.9583067,82.2407689 93.25844,82.7322844 92.4491689,83.06452 C91.6262222,83.4064089 90.6978933,83.5729289 89.6464844,83.5729289 C89.1034844,83.5729289 88.5588756,83.5319022 88.0255289,83.4522622 C87.4913778,83.3766444 87.0449111,83.2447156 86.6893467,83.0653244 L86.6893467,88.5363511 L83.2262133,88.5363511 L83.2262133,72.8022222 L81.2247556,72.8022222 L81.2247556,69.8724356 L81.2239511,69.8724356 Z M89.7019911,72.4273511 C89.0246489,72.4273511 88.4092489,72.60272 87.8437244,72.9333467 C87.28544,73.2736267 86.9001111,73.7820356 86.6877378,74.4553556 L86.6877378,80.0028044 C86.9347022,80.1982844 87.2950933,80.3527378 87.7673022,80.46536 C88.2395111,80.58844 88.7101111,80.6447511 89.1943867,80.6447511 C89.69636,80.6447511 90.1540889,80.5554578 90.5804444,80.3889378 C91.0059956,80.2192 91.3800622,79.9472978 91.6978178,79.5732311 C92.0212044,79.2031867 92.2681689,78.7309778 92.4483644,78.1646489 C92.6221244,77.5942978 92.7146356,76.9121289 92.7146356,76.1117067 C92.7146356,74.9356089 92.4282533,74.0306089 91.8579022,73.3910756 C91.2883556,72.7507378 90.5748133,72.4273511 89.7019911,72.4273511 L89.7019911,72.4273511 Z"></path>
                    <path d="M11.7271911,96.5268978 L14.8942889,96.5268978 L14.8942889,93.8907333 L16.99952,93.3034889 L16.99952,96.5277022 L24.1220711,96.5277022 L24.1220711,98.3143733 L16.99952,98.3143733 L16.99952,104.609956 C16.99952,105.907524 17.31808,106.86964 17.9439378,107.488258 C18.5738178,108.110093 19.4772089,108.419804 20.6428489,108.419804 C21.4384444,108.419804 22.1302667,108.270178 22.72636,107.97012 C23.32004,107.666844 23.8558,107.34024 24.3368578,106.983067 L25.0254622,108.555756 C24.4100622,109.050489 23.6595156,109.452711 22.7979556,109.752769 C21.9404178,110.057653 21.0523111,110.206476 20.1497244,110.206476 C19.4345733,110.206476 18.7636667,110.104311 18.1378089,109.899982 C17.50632,109.695653 16.9472311,109.378702 16.4645644,108.955564 C15.9923556,108.530013 15.6022,107.979773 15.3254711,107.316911 C15.0382844,106.647613 14.8934844,105.851213 14.8934844,104.928516 L14.8934844,98.31196 L11.7263867,98.31196 L11.7263867,96.5268978 L11.7271911,96.5268978 Z"></path>
                    <path d="M29.09032,91.2006711 L33.2468844,91.2006711 L33.2468844,98.1800311 L33.3812267,98.1800311 C33.9354889,97.5598044 34.571,97.0771378 35.3014356,96.7280089 C36.0294578,96.3804889 36.93848,96.2067289 38.0212622,96.2067289 C38.8731689,96.2067289 39.6164756,96.2960222 40.2487689,96.4738044 C40.8738222,96.6531956 41.3975156,96.9637111 41.7924978,97.40696 C42.1979378,97.8518178 42.4907556,98.4623911 42.6854311,99.2330489 C42.8801067,100.007729 42.9782489,100.989956 42.9782489,102.18536 L42.9782489,109.860564 L40.8730178,109.860564 L40.8730178,102.585973 C40.8730178,101.817729 40.8271644,101.156476 40.7386756,100.584516 C40.6526,100.014164 40.4707956,99.5395422 40.22544,99.1550178 C39.9639956,98.7729067 39.6156711,98.4841111 39.1684,98.2894356 C38.7315867,98.0915422 38.1628444,97.9974222 37.4702178,97.9974222 C36.9931822,97.9974222 36.5266044,98.0794756 36.0584178,98.2459956 C35.6079289,98.4173422 35.1864,98.6482178 34.8067022,98.9386222 C34.4173511,99.2338533 34.0915511,99.5910267 33.8220622,100.008533 C33.5437244,100.427649 33.35468,100.885378 33.2468844,101.38172 L33.2468844,109.861369 L31.1939422,109.861369 L31.1939422,92.9849289 L29.0911244,92.9849289 L29.0911244,91.2006711 L29.09032,91.2006711 Z"></path>
                    <path d="M60.6012133,108.181689 C60.2826533,108.466462 59.9029556,108.73032 59.4725778,108.981307 C59.0365689,109.228271 58.5587289,109.444667 58.0462978,109.625667 C57.5330622,109.797013 56.9884533,109.940204 56.4333867,110.035933 C55.8694711,110.130053 55.3047511,110.175907 54.7400311,110.175907 C53.6741422,110.175907 52.72892,110.015822 51.91804,109.690022 C51.0975067,109.361809 50.4097067,108.885578 49.8659022,108.275809 C49.31164,107.662822 48.8909156,106.92756 48.6029244,106.074849 C48.3205644,105.222942 48.1813956,104.264849 48.1813956,103.194938 C48.1813956,102.079173 48.3366533,101.081662 48.6439511,100.204818 C48.95688,99.3344089 49.4041511,98.6071911 49.9930044,98.0207511 C50.5794444,97.43592 51.2921822,96.9838222 52.1223689,96.67572 C52.9654267,96.3627911 53.8993867,96.2059244 54.9242489,96.2059244 C55.6739911,96.2059244 56.4132756,96.30648 57.1372756,96.5011556 C57.8652978,96.6958311 58.5072444,97.0650711 59.07116,97.6104844 C59.6310533,98.1478533 60.0574089,98.8959867 60.3655111,99.8476444 C60.6671778,100.801716 60.7749733,102.031711 60.6840711,103.543262 L50.3928133,103.543262 C50.3928133,105.140889 50.8239956,106.340316 51.6815333,107.127062 C52.5438978,107.917027 53.6894267,108.315227 55.1261644,108.315227 C55.6040044,108.315227 56.0746044,108.257307 56.5468133,108.140662 C57.0198267,108.025627 57.4598578,107.889676 57.89104,107.727178 C58.3125689,107.567093 58.6914622,107.389311 59.02048,107.194636 C59.3478889,106.998351 59.6004844,106.820569 59.7798756,106.658876 L60.6012133,108.181689 L60.6012133,108.181689 Z M54.9918222,97.9708756 C54.4061867,97.9708756 53.8575556,98.0304044 53.3282311,98.1550933 C52.8061467,98.2789778 52.3492222,98.4881333 51.9486089,98.7785378 C51.5479956,99.0737689 51.2205867,99.4590978 50.9631644,99.9272844 C50.7065467,100.401907 50.54244,100.981911 50.4756711,101.677756 L58.73812,101.677756 C58.6504356,100.502462 58.2723467,99.5894178 57.6094844,98.9378178 C56.9466222,98.2942622 56.0697778,97.9708756 54.9918222,97.9708756 L54.9918222,97.9708756 Z"></path>
                    <path d="M66.56456,97.5670444 C67.3239556,97.1237956 68.1855156,96.8020178 69.1508489,96.61056 C70.10492,96.4158844 71.0509467,96.3185467 71.9736444,96.3185467 C72.8818622,96.3185467 73.6259733,96.45852 74.2011511,96.74088 C74.77472,97.0264578 75.2316444,97.3932844 75.5614667,97.8502089 C75.8840489,98.3039156 76.1092933,98.8147378 76.2235244,99.3947422 C76.3466044,99.9731378 76.3980889,100.555556 76.3980889,101.143604 C76.3980889,101.817729 76.3884356,102.54012 76.3474089,103.304342 C76.3160356,104.070978 76.2854667,104.832787 76.2653556,105.598618 C76.2653556,106.483507 76.3256889,107.329782 76.4294622,108.125378 L78.2161333,108.125378 L78.2161333,109.861369 L74.6958844,109.861369 L74.4545511,107.859911 L74.32584,107.859911 C74.2124133,108.023213 74.0595689,108.222716 73.8391511,108.472898 C73.6275822,108.727102 73.3516578,108.970849 73.0017244,109.209769 C72.6525956,109.44708 72.22624,109.656236 71.7290933,109.834822 C71.2303378,110.010996 70.64068,110.101898 69.9633378,110.101898 C68.6456578,110.101898 67.6022933,109.764031 66.83244,109.089907 C66.0674133,108.414173 65.6836933,107.489062 65.6836933,106.316987 C65.6836933,105.408769 65.8880222,104.656613 66.2773733,104.051671 C66.6884444,103.44512 67.2628178,102.98176 68.0133644,102.665613 C68.7614978,102.345444 69.6664978,102.159618 70.7235378,102.106524 C71.7894267,102.05504 72.9800044,102.122613 74.2992933,102.314071 C74.3821511,101.499973 74.3974356,100.820218 74.3346889,100.278022 C74.2735511,99.7358267 74.13036,99.3022311 73.9035067,98.9836711 C73.6822844,98.6651111 73.37016,98.4366489 72.9703511,98.3063289 C72.5697378,98.1711822 72.0774178,98.1052178 71.4821289,98.1052178 C70.6865333,98.1052178 69.9215067,98.2154267 69.1830267,98.4366489 C68.4533956,98.65948 67.8074267,98.8847244 67.2330533,99.1172089 L66.56456,97.5670444 L66.56456,97.5670444 Z M70.5055333,108.315227 C71.0091156,108.315227 71.4708667,108.238 71.8964178,108.076307 C72.3227733,107.913004 72.6912089,107.711893 73.0097689,107.460102 C73.3323511,107.214747 73.6010356,106.941236 73.8118,106.647613 C74.0273911,106.349164 74.1866711,106.074044 74.2976844,105.808578 L74.2976844,103.947093 C73.3693556,103.783791 72.5182533,103.700129 71.7323111,103.700129 C70.9528044,103.700129 70.27868,103.787813 69.7043067,103.955942 C69.1395867,104.119244 68.69312,104.384711 68.3761689,104.741884 C68.0576089,105.096644 67.8983289,105.563222 67.8983289,106.127942 C67.8983289,106.712773 68.0930044,107.229227 68.4992489,107.662822 C68.8998622,108.10044 69.5667467,108.315227 70.5055333,108.315227 L70.5055333,108.315227 Z"></path>
                    <path d="M81.6068667,96.5268978 L84.7739644,96.5268978 L84.7739644,93.8907333 L86.8880444,93.3034889 L86.8880444,96.5277022 L94.0001378,96.5277022 L94.0001378,98.3143733 L86.8880444,98.3143733 L86.8880444,104.609956 C86.8880444,105.907524 87.1953422,106.86964 87.8268311,107.488258 C88.4518844,108.110093 89.35608,108.419804 90.52172,108.419804 C91.3221422,108.419804 92.0204,108.270178 92.6060356,107.97012 C93.1997156,107.666844 93.7378889,107.34024 94.2165333,106.983067 L94.9035289,108.555756 C94.2873244,109.050489 93.5391911,109.452711 92.6800444,109.752769 C91.8200933,110.057653 90.9319867,110.206476 90.0285956,110.206476 C89.31988,110.206476 88.6473644,110.104311 88.01668,109.899982 C87.3859956,109.695653 86.8317333,109.378702 86.3538933,108.955564 C85.8704222,108.530013 85.4867022,107.979773 85.2051467,107.316911 C84.91796,106.647613 84.7739644,105.851213 84.7739644,104.928516 L84.7739644,98.31196 L81.6068667,98.31196 L81.6068667,96.5268978 L81.6068667,96.5268978 Z"></path>
                    <path d="M98.6514356,109.85976 L98.6514356,108.076307 L102.253738,108.076307 L102.253738,98.3127644 L98.6514356,98.3127644 L98.6514356,96.5260933 L103.638991,96.5260933 L104.066151,98.2588667 L104.19808,98.2588667 C104.803827,97.7118444 105.476342,97.2372222 106.22528,96.84948 C106.976631,96.4569111 107.855889,96.2590178 108.895231,96.2590178 C109.493738,96.2590178 109.978818,96.3756622 110.340818,96.6097556 C110.70684,96.8374133 110.988396,97.17528 111.198356,97.6201378 C111.397858,98.0649956 111.537027,98.6039733 111.609427,99.2322444 C111.681022,99.8669511 111.716418,100.583711 111.716418,101.380111 L109.849302,101.409876 C109.849302,100.280436 109.73668,99.4518578 109.520284,98.9193156 C109.29504,98.3948178 108.896036,98.1261333 108.298333,98.1261333 C107.754529,98.1261333 107.251751,98.2097956 106.810111,98.3714889 C106.368471,98.5235289 105.980729,98.7222267 105.650102,98.95632 C105.322693,99.18076 105.04516,99.4148533 104.809458,99.64412 C104.584213,99.8717778 104.408844,100.069671 104.307484,100.227342 L104.307484,108.077111 L109.429382,108.077111 L109.429382,109.860564 L98.6514356,109.860564 L98.6514356,109.85976 Z"></path>
                    <path d="M128.3652,108.181689 C128.045836,108.466462 127.668551,108.73032 127.236564,108.981307 C126.802164,109.228271 126.322716,109.444667 125.80948,109.625667 C125.297049,109.797013 124.754049,109.940204 124.198982,110.035933 C123.639089,110.130053 123.069542,110.175907 122.506431,110.175907 C121.437324,110.175907 120.492907,110.015822 119.681222,109.690022 C118.861493,109.361809 118.172889,108.885578 117.629084,108.275809 C117.075627,107.662822 116.654902,106.92756 116.373347,106.074849 C116.085356,105.222942 115.944578,104.264849 115.944578,103.194938 C115.944578,102.079173 116.099836,101.081662 116.41196,100.204818 C116.726498,99.3344089 117.17216,98.6071911 117.750556,98.0207511 C118.347453,97.43592 119.055364,96.9838222 119.893596,96.67572 C120.728609,96.3627911 121.658547,96.2059244 122.690649,96.2059244 C123.439587,96.2059244 124.177262,96.30648 124.903676,96.5011556 C125.631698,96.6958311 126.273644,97.0650711 126.836756,97.6104844 C127.396649,98.1478533 127.827831,98.8959867 128.131107,99.8476444 C128.4376,100.801716 128.534133,102.031711 128.447253,103.543262 L118.157604,103.543262 C118.157604,105.140889 118.589591,106.340316 119.446324,107.127062 C120.309493,107.917027 121.454218,108.315227 122.88452,108.315227 C123.3696,108.315227 123.843418,108.257307 124.311604,108.140662 C124.784618,108.025627 125.23028,107.889676 125.655831,107.727178 C126.087818,107.567093 126.456253,107.389311 126.784467,107.194636 C127.111876,106.998351 127.365276,106.820569 127.544667,106.658876 L128.3652,108.181689 L128.3652,108.181689 Z M122.757418,97.9708756 C122.170978,97.9708756 121.622347,98.0304044 121.093827,98.1550933 C120.574156,98.2789778 120.114013,98.4881333 119.714204,98.7785378 C119.313591,99.0737689 118.986182,99.4590978 118.727151,99.9272844 C118.469729,100.401907 118.307231,100.981911 118.241267,101.677756 L126.499693,101.677756 C126.416031,100.502462 126.037138,99.5894178 125.375884,98.9378178 C124.712218,98.2942622 123.837787,97.9708756 122.757418,97.9708756 L122.757418,97.9708756 Z"></path>
                </g>
                <path d="M181,181 L0,181 L0,177.782222 L177.782222,177.782222 L177.782222,3.21777778 L0,3.21777778 L0,0 L181,0 L181,181 Z" id="Shape"></path>
            </g>
        </g>
    </g>
</svg>
