<svg id="Layer_1" data-name="Layer 1" xmlns="http://www.w3.org/2000/svg" viewBox="0 0 240.3 130.9">
  <title>logo-top-royal</title>
  <g>
    <path d="M21.1,44.1V61.2H8.9V10.8H28.5c20,0,23,24.7,7.5,32.1l10.8,16v2.3H33.7L23.1,44.1Zm0-11.2h7.1a5.2,5.2,0,1,0,0-10.4H21.1Z" transform="translate(0 -10)"/>
    <path d="M75.9,10a26,26,0,1,1,0,51.9c-14.4,0-26.1-11-26.1-25.9A25.8,25.8,0,0,1,75.9,10ZM89.6,36.1c0-19-27.6-19.1-27.6,0S89.6,54.9,89.6,36.1Z" transform="translate(0 -10)"/>
    <path d="M149.9,12.1,131.8,40.8V61.2H119.5V40.9L101.4,11.9V10.8h13.5l5,8.1,5.7,10.3,6-10.9,4.6-7.4h13.6Z" transform="translate(0 -10)"/>
    <path d="M177.4,53.8H160.2l-2.8,7.4H144.3l20.2-51h8.8l21,51H180.3ZM165.1,41.2l-.4,1.2h8.4l-.3-.9-3.9-10.9Z" transform="translate(0 -10)"/>
    <path d="M210.9,49.3H232V61.2H198.5V10.8h12.3Z" transform="translate(0 -10)"/>
  </g>
  <g>
    <path d="M39.4,119H51.8c-1.9,13.2-12.7,21.9-25.8,21.9S0,129.9,0,115.1A25.8,25.8,0,0,1,26.1,89c13,0,24.1,8.8,25.7,21.7H39.3c-3.7-14.7-27.1-13.2-27.1,4.3S35.9,133.9,39.4,119Z" transform="translate(0 -10)"/>
    <path d="M83.1,89a26,26,0,1,1,0,51.9c-14.4,0-26.1-11-26.1-25.9A25.8,25.8,0,0,1,83.1,89Zm13.8,26.1c0-19-27.6-19.1-27.6,0S96.8,133.9,96.8,115.1Z" transform="translate(0 -10)"/>
    <path d="M114.8,124V89.8h12.3v34.1c0,7.6,14.3,7.4,14.3,0V89.8h12.3V124c0,11.4-9.8,17-19.5,16.9S114.8,135.4,114.8,124Z" transform="translate(0 -10)"/>
    <path d="M172.6,123.1v17.1H160.3V89.8h19.6c20,0,23,24.7,7.5,32.1l10.8,16v2.3H185.1l-10.5-17.1Zm0-11.2h7.1a5.2,5.2,0,1,0,0-10.4h-7.1Z" transform="translate(0 -10)"/>
    <path d="M214.4,140.2V101.3H200.8V89.8h39.5v11.5H226.7v38.9Z" transform="translate(0 -10)"/>
  </g>
</svg>
